<?xml version="1.0" encoding="UTF-8" standalone="no"?>
<!-- Created with Inkscape (http://www.inkscape.org/) -->

<svg
   xmlns:dc="http://purl.org/dc/elements/1.1/"
   xmlns:cc="http://creativecommons.org/ns#"
   xmlns:rdf="http://www.w3.org/1999/02/22-rdf-syntax-ns#"
   xmlns:svg="http://www.w3.org/2000/svg"
   xmlns="http://www.w3.org/2000/svg"
   xmlns:sodipodi="http://sodipodi.sourceforge.net/DTD/sodipodi-0.dtd"
   xmlns:inkscape="http://www.inkscape.org/namespaces/inkscape"
   width="297mm"
   height="210mm"
   viewBox="0 0 297 210"
   version="1.1"
   id="svg8"
   inkscape:version="0.92.1 r15371"
   sodipodi:docname="FutureCat.svg"
   inkscape:export-filename="/home/omar/Escritorio/FutureCat.png"
   inkscape:export-xdpi="179.73442"
   inkscape:export-ydpi="179.73442">
  <defs
     id="defs2" />
  <sodipodi:namedview
     id="base"
     pagecolor="#ffffff"
     bordercolor="#666666"
     borderopacity="1.0"
     inkscape:pageopacity="0.0"
     inkscape:pageshadow="2"
     inkscape:zoom="0.49497475"
     inkscape:cx="581.01617"
     inkscape:cy="387.25028"
     inkscape:document-units="mm"
     inkscape:current-layer="g1253"
     showgrid="false"
     inkscape:window-width="1366"
     inkscape:window-height="688"
     inkscape:window-x="0"
     inkscape:window-y="24"
     inkscape:window-maximized="1"
     inkscape:snap-others="false"
     inkscape:snap-nodes="false"
     inkscape:snap-global="false" />
  <metadata
     id="metadata5">
    <rdf:RDF>
      <cc:Work
         rdf:about="">
        <dc:format>image/svg+xml</dc:format>
        <dc:type
           rdf:resource="http://purl.org/dc/dcmitype/StillImage" />
        <dc:title></dc:title>
      </cc:Work>
    </rdf:RDF>
  </metadata>
  <g
     inkscape:label="Capa 1"
     inkscape:groupmode="layer"
     id="layer1"
     transform="translate(0,-87)">
    <g
       id="g1029"
       transform="translate(-18.708867,19.777945)">
      <path
         sodipodi:nodetypes="cccccc"
         inkscape:connector-curvature="0"
         id="rect1000"
         d="m 53.105652,195.89137 57.641368,-0.56696 0.75595,55.37351 -63.12202,-1.32292 0.428893,-15.31583 z"
         style="fill:#f9f3e6;fill-opacity:1;stroke:none;stroke-width:0.40000001;stroke-linecap:round;stroke-linejoin:bevel;stroke-miterlimit:4;stroke-dasharray:none;stroke-opacity:1;paint-order:normal" />
      <path
         sodipodi:nodetypes="cssscsc"
         inkscape:connector-curvature="0"
         id="path992"
         d="m 116.15034,177.96939 c 0,0.9509 -0.78697,1.66585 -2.47781,2.1493 -1.11431,0.3186 -2.8043,0.50325 -4.27074,0.70714 -1.69125,0.23515 -7.74667,1.0289 -10.29976,-0.11507 -2.999115,-1.34381 -2.414784,-4.94674 -2.414786,-5.79889 3e-6,-1.57757 8.987426,0.20108 12.714546,0.20108 3.72712,0 6.74855,1.27887 6.74855,2.85644 z"
         style="fill:#da2a1f;fill-opacity:1;stroke:#000000;stroke-width:0.40000001;stroke-linecap:round;stroke-linejoin:bevel;stroke-miterlimit:4;stroke-dasharray:none;stroke-opacity:1;paint-order:normal"
         transform="rotate(13.621398)" />
      <path
         sodipodi:nodetypes="cccccccccc"
         inkscape:connector-curvature="0"
         id="path129"
         d="m 48.380951,249.2805 -0.188987,-11.33928 0.47247,-6.4256 1.039434,-7.9375 1.606399,-12.56771 1.039434,-6.61458 0.377976,-2.83482 v -1.32292 -6.70907 -2.45685"
         style="fill:none;stroke:#000000;stroke-width:1.36500001;stroke-linecap:butt;stroke-linejoin:miter;stroke-miterlimit:4;stroke-dasharray:none;stroke-opacity:1" />
      <path
         sodipodi:nodetypes="ccccc"
         inkscape:connector-curvature="0"
         id="rect1003"
         d="m 50.176338,212.8058 -0.09449,6.3311 -2.456846,16.63094 -10.394346,-18.04836 z"
         style="fill:#f9f3e6;fill-opacity:1;stroke:none;stroke-width:0.40000001;stroke-linecap:round;stroke-linejoin:bevel;stroke-miterlimit:4;stroke-dasharray:none;stroke-opacity:1;paint-order:normal" />
      <path
         inkscape:connector-curvature="0"
         id="path131"
         d="m 48.191964,237.94122 -3.779763,-7.18155 -7.276042,-13.04018 7.181549,-2.83482 6.709076,-2.07887"
         style="fill:none;stroke:#000000;stroke-width:1.86500001;stroke-linecap:round;stroke-linejoin:bevel;stroke-miterlimit:4;stroke-dasharray:none;stroke-opacity:1" />
      <path
         sodipodi:nodetypes="sssssss"
         inkscape:connector-curvature="0"
         id="path995"
         d="m 47.656077,219.53717 c 0,1.18725 -4.156607,2.14972 -9.28404,2.14972 -3.489211,0 -11.763982,-0.44311 -13.442329,-1.79017 -0.788003,-0.63245 2.516408,-2.32615 2.516408,-2.70549 0,-1.18725 4.468157,0.17574 9.59559,0.17574 3.302647,0 8.229134,-0.66523 10.267735,-0.0577 1.126374,0.33568 0.346636,1.80536 0.346636,2.22789 z"
         style="fill:#da2a1f;fill-opacity:1;stroke:#000000;stroke-width:0.40000001;stroke-linecap:round;stroke-linejoin:bevel;stroke-miterlimit:4;stroke-dasharray:none;stroke-opacity:1;paint-order:normal"
         transform="rotate(-17.386174)" />
      <path
         inkscape:connector-curvature="0"
         id="path133"
         d="m 110.74702,192.67857 v 4.25223 l 0.37798,9.07143 v 5.00818 l -0.18899,6.89807 0.0945,13.51265 0.47246,20.41071"
         style="fill:none;stroke:#000000;stroke-width:1.36500001;stroke-linecap:butt;stroke-linejoin:miter;stroke-miterlimit:4;stroke-dasharray:none;stroke-opacity:1" />
      <path
         sodipodi:nodetypes="ccccccc"
         inkscape:connector-curvature="0"
         id="rect1006"
         d="m 111.125,211.2939 h 10.77232 l 4.91369,0.47247 -4.91369,8.78795 -7.42936,13.2173 -3.24847,3.60264 z"
         style="fill:#f9f3e6;fill-opacity:1;stroke:none;stroke-width:0.40000001;stroke-linecap:round;stroke-linejoin:bevel;stroke-miterlimit:4;stroke-dasharray:none;stroke-opacity:1;paint-order:normal" />
      <path
         inkscape:connector-curvature="0"
         id="path135"
         d="m 111.40848,237.84672 1.88988,-1.6064 13.79613,-24.75744 -16.06398,-0.66145"
         style="fill:none;stroke:#000000;stroke-width:1.56500006;stroke-linecap:round;stroke-linejoin:bevel;stroke-miterlimit:4;stroke-dasharray:none;stroke-opacity:1" />
      <path
         sodipodi:nodetypes="caaasaac"
         inkscape:connector-curvature="0"
         id="path985"
         d="m 91.470239,199.05693 c 0,0 -0.306603,6.2797 -1.784319,8.93197 -2.162017,3.8805 -5.298826,8.95297 -9.738631,9.09682 -3.620499,0.11731 -6.404043,-3.86893 -8.40503,-6.8885 -2.10199,-3.17199 -3.223061,-10.9513 -3.223061,-10.9513 2.16391,-3.04128 7.465109,0.0762 11.197544,0.0472 3.985157,-0.031 9.562882,-3.42487 11.953497,-0.23624 z"
         style="fill:#fcd462;fill-opacity:1;stroke:#000000;stroke-width:0.40000001;stroke-linecap:round;stroke-linejoin:bevel;stroke-miterlimit:4;stroke-dasharray:none;stroke-opacity:1;paint-order:normal" />
      <path
         sodipodi:nodetypes="ssssssccccccs"
         inkscape:connector-curvature="0"
         id="path942"
         d="m 139.51469,134.63376 c 0,15.99924 -3.49242,31.73012 -11.61097,43.11677 -10.26981,14.40389 -26.76607,20.62701 -46.386515,20.62701 -2.446575,0 -4.932977,0.39655 -7.255302,0.12756 -31.024461,-3.5935 -50.553196,-31.10197 -50.553196,-64.81628 0,-11.16151 0.06306,-28.77021 3.444194,-42.934598 2.655834,-11.12593 8.617586,-19.543738 8.617586,-19.543738 l 2.147322,-0.385576 20.391299,4.370719 20.594689,6.485664 24.422983,-7.586021 19.27547,-2.41609 c 0,0 16.91244,41.10685 16.91244,62.95458 z"
         style="fill:#f9f3e6;fill-opacity:1;stroke:#000000;stroke-width:1.86500001;stroke-linecap:round;stroke-linejoin:bevel;stroke-miterlimit:4;stroke-dasharray:none;stroke-opacity:1" />
      <path
         sodipodi:nodetypes="sssss"
         inkscape:connector-curvature="0"
         id="path945"
         d="m 121.33036,139.47841 c 0,7.09752 -3.02323,10.39434 -10.01637,10.39435 -6.99314,0 -10.11086,-1.40695 -10.11086,-8.50447 0,-7.09752 2.64525,-10.86681 9.63839,-10.86681 6.99314,0 10.48884,1.87942 10.48884,8.97693 z"
         style="fill:#ffffff;fill-opacity:1;stroke:#000000;stroke-width:1.86500001;stroke-linecap:round;stroke-linejoin:bevel;stroke-miterlimit:4;stroke-dasharray:none;stroke-opacity:1" />
      <path
         sodipodi:nodetypes="caaasscac"
         inkscape:connector-curvature="0"
         id="path948"
         d="m 72.964581,91.336102 c 0,0 -9.651827,3.568678 -14.207417,5.93171 -3.146517,1.632131 -6.133215,3.578958 -9.001143,5.662088 -3.38892,2.46154 -6.678449,5.09588 -9.65201,8.04578 -3.77193,3.74192 -10.303458,16.73097 -10.303459,12.16156 -1e-6,-4.22725 -0.467212,-19.90357 2.386879,-30.408811 2.577394,-9.486779 8.504355,-16.35942 8.504355,-16.35942 0,0 10.555885,2.776113 15.506516,5.012025 5.923545,2.67532 16.766279,9.955068 16.766279,9.955068 z"
         style="fill:#b9886a;fill-opacity:1;stroke:#000000;stroke-width:1.86500001;stroke-linecap:round;stroke-linejoin:bevel;stroke-miterlimit:4;stroke-dasharray:none;stroke-opacity:1" />
      <path
         sodipodi:nodetypes="cacacac"
         inkscape:connector-curvature="0"
         id="path950"
         d="m 128.23728,120.32399 c 0,0 -9.09251,-13.23431 -15.34507,-18.0639 -5.79335,-4.474881 -19.786291,-9.528359 -19.786291,-9.528359 0,0 9.810961,-5.674693 15.113181,-7.588893 4.27126,-1.542006 13.27206,-3.073396 13.27206,-3.073396 0,0 4.81293,10.428447 5.91899,16.009424 1.44251,7.278604 0.82713,22.245124 0.82713,22.245124 z"
         style="fill:#b9886a;fill-opacity:1;stroke:#000000;stroke-width:1.86500001;stroke-linecap:round;stroke-linejoin:bevel;stroke-miterlimit:4;stroke-dasharray:none;stroke-opacity:1;paint-order:normal" />
      <path
         inkscape:connector-curvature="0"
         id="path954"
         d="m 69.783853,161.73177 5.716889,7.843 4.819198,-4.29948 5.622396,5.33892 4.346725,-4.39397"
         style="fill:none;stroke:#000000;stroke-width:0.86500001;stroke-linecap:round;stroke-linejoin:bevel;stroke-miterlimit:4;stroke-dasharray:none;stroke-opacity:1" />
      <path
         sodipodi:nodetypes="ssssss"
         inkscape:connector-curvature="0"
         id="path958"
         d="m 66.05542,139.7619 c -10e-7,9.13509 -7.638138,16.54054 -17.060257,16.54054 -4.799133,0 -10.458356,-0.69281 -13.558252,-3.78526 -2.986117,-2.97894 -3.502005,-8.27313 -3.502005,-12.75528 -1e-6,-9.13509 7.638138,-16.54054 17.060257,-16.54054 9.422119,0 17.060256,7.40545 17.060257,16.54054 z"
         style="fill:#000001;fill-opacity:1;stroke:#000000;stroke-width:0.85683548;stroke-linecap:round;stroke-linejoin:bevel;stroke-miterlimit:4;stroke-dasharray:none;stroke-opacity:1;paint-order:normal" />
      <ellipse
         ry="9.0789471"
         rx="8.464736"
         cy="140.42336"
         cx="48.05022"
         id="path956"
         style="fill:#ffffff;fill-opacity:1;stroke:#000000;stroke-width:1.03894973;stroke-linecap:round;stroke-linejoin:bevel;stroke-miterlimit:4;stroke-dasharray:none;stroke-opacity:1;paint-order:normal" />
      <ellipse
         ry="7.0870538"
         rx="8.0792408"
         cy="160.73959"
         cx="48.050224"
         id="path961"
         style="fill:#000001;fill-opacity:1;stroke:#000000;stroke-width:0.86500001;stroke-linecap:round;stroke-linejoin:bevel;stroke-miterlimit:4;stroke-dasharray:none;stroke-opacity:1;paint-order:normal" />
      <path
         inkscape:connector-curvature="0"
         id="path988"
         d="m 52.819141,198.84526 1.670433,0.60136 2.104747,0.80181 3.474503,1.00226 6.715149,0.86862 h 2.104747"
         style="fill:none;stroke:#000000;stroke-width:0.26458332px;stroke-linecap:butt;stroke-linejoin:miter;stroke-opacity:1" />
      <path
         inkscape:connector-curvature="0"
         id="path990"
         d="m 91.138908,202.88772 2.338607,-0.40091 5.579253,-1.20271 4.944482,-1.30294 6.48129,-3.10701"
         style="fill:none;stroke:#000000;stroke-width:0.26458332px;stroke-linecap:butt;stroke-linejoin:miter;stroke-opacity:1" />
    </g>
    <g
       id="g1112"
       transform="translate(17.10525,-20.847023)">
      <path
         style="fill:#0c4565;stroke-width:0.14775024"
         d="m 164.69934,228.71908 c -17.01653,-0.37836 -27.54679,-0.80043 -43.73139,-1.75284 l -5.54214,-0.32616 22.00836,-0.10572 c 28.24933,-0.13573 80.14963,-0.13556 107.76416,4.4e-4 18.76814,0.0925 21.22956,0.1291 18.97866,0.28341 -9.07292,0.62172 -29.59963,1.52721 -41.75084,1.84174 -9.51743,0.24637 -47.55459,0.28537 -57.72681,0.0591 z m -49.40139,-7.17569 c -0.27367,-0.21513 -0.38991,-0.44564 -0.39111,-0.77548 -0.001,-0.25813 0.6115,-3.08202 1.36101,-6.27531 1.03895,-4.42655 1.3254,-5.86541 1.20562,-6.05612 -0.2342,-0.3728 -1.6683,-0.39592 -2.91545,-0.0469 -0.94541,0.26452 -0.99647,0.26612 -0.73894,0.023 0.15221,-0.14358 2.67082,-1.98848 5.59707,-4.09984 2.92626,-2.11136 7.91379,-5.7107 11.08339,-7.99856 3.16961,-2.28786 5.78085,-4.10604 5.80274,-4.04039 0.022,0.0656 -0.99644,4.5327 -2.26295,9.92677 -1.2665,5.39408 -2.27241,9.92336 -2.23534,10.06507 0.0377,0.14376 -0.0721,0.38409 -0.24858,0.54386 -0.29582,0.26789 -10.80726,7.94979 -11.90125,8.6976 -0.45374,0.31015 -0.66425,0.34241 -2.23388,0.34241 -1.52939,0 -1.77867,-0.0359 -2.12233,-0.30614 z m 7.42432,0.005 c 1.10929,-0.9235 15.40947,-11.21989 15.58281,-11.21989 0.0494,0 -0.11451,0.32888 -0.3646,0.73082 -0.60136,0.96684 -0.71912,1.92442 -0.28948,2.35384 0.30788,0.30771 0.40422,0.31268 6.05675,0.31268 5.58718,0 5.75455,0.009 6.13331,0.30613 0.54448,0.42806 0.51364,0.90299 -0.27892,4.29382 -0.56256,2.40679 -0.72762,2.91201 -1.04278,3.19174 l -0.37444,0.33235 -12.88649,-0.005 c -12.85119,-0.005 -12.88551,-0.005 -12.53616,-0.29657 z m 41.26345,-0.0877 c -0.5498,-0.69859 -0.56467,-0.66281 2.23215,-5.36824 l 1.09551,-1.8431 17.72832,-12.88598 c 9.75056,-7.08726 17.77697,-12.8882 17.83644,-12.89094 0.0595,-0.003 -0.28219,0.58908 -0.75921,1.31517 -0.47705,0.72609 -1.05165,1.78965 -1.2769,2.36345 l -0.40954,1.0433 2.01856,7.95911 c 1.11021,4.37752 2.01855,8.06209 2.01855,8.18794 0,0.33488 -13.91742,10.44054 -14.3786,10.44054 -0.0466,0 0.14663,-0.34393 0.42973,-0.76427 0.32959,-0.48952 0.49868,-0.90107 0.47032,-1.14476 l -0.0443,-0.38046 -5.0654,-0.0389 c -4.25031,-0.0326 -5.13384,-0.003 -5.49072,0.18095 -0.28028,0.1448 -0.83453,0.87101 -1.62504,2.12905 -0.65986,1.05008 -1.30362,1.94907 -1.43057,1.99776 -0.12691,0.0487 -3.11359,0.0885 -6.63693,0.0885 h -6.40607 l -0.30631,-0.38919 z m 27.4767,-8.25099 c 0.60365,-0.312 0.88842,-0.78469 0.88795,-1.47389 0,-0.86882 -1.15223,-9.1999 -1.31329,-9.50069 -0.56069,-1.0471 -2.25912,-1.20941 -2.86935,-0.27422 -0.11381,0.17458 -1.29429,2.33823 -2.62308,4.80814 -2.57376,4.78395 -2.69033,5.10851 -2.11356,5.88497 0.54327,0.73134 0.76892,0.7719 4.30858,0.77424 2.63804,0.002 3.38088,-0.0419 3.72275,-0.21855 z m 2.40964,8.30783 c -0.16705,-0.18278 -0.34423,-0.63146 -0.39375,-0.99704 l -0.0901,-0.6647 5.4844,-3.98817 c 5.09918,-3.70805 7.65172,-5.53298 8.55091,-6.11344 l 0.36879,-0.23807 -0.34173,0.51698 c -0.62292,0.94235 -1.34937,2.57341 -1.51312,3.39732 -0.15134,0.76164 -0.11451,0.999 0.5893,3.79815 0.41293,1.64214 0.75078,3.25025 0.75078,3.57358 0,1.0726 0.16321,1.04774 -6.87938,1.04774 h -6.22246 z m -27.53242,-8.77878 c 0,-0.0742 0.27241,-0.39747 0.60536,-0.7186 0.85949,-0.82904 2.99988,-3.31674 4.12435,-4.79364 0.52574,-0.69053 1.67739,-2.45197 2.55921,-3.9143 0.88182,-1.46233 1.69042,-2.75848 1.79692,-2.88035 0.10647,-0.12194 1.93678,-3.17945 4.06735,-6.79466 2.13058,-3.61521 4.03676,-6.72265 4.23597,-6.90544 l 0.36218,-0.33235 h 7.08573 c 6.82467,0 7.09628,0.0105 7.37348,0.28763 0.27988,0.27973 0.54716,1.03255 0.63136,1.77838 0.0374,0.33048 -1.38529,1.40499 -14.17844,10.70897 -7.82096,5.6879 -14.40503,10.51577 -14.63127,10.72861 -0.39722,0.37369 -2.79413,2.16193 -3.62577,2.70504 -0.22353,0.14603 -0.40643,0.2048 -0.40643,0.13067 z m 45.52472,-6.30201 c 0.52054,-0.47851 8.44977,-6.17086 8.51081,-6.10985 0.10072,0.10067 -3.31132,5.9091 -3.59754,6.12414 -0.17351,0.13033 -0.96374,0.18465 -2.68771,0.18465 -2.05576,0 -2.40775,-0.0314 -2.22556,-0.19894 z m -2.65894,-0.49396 c 0.0176,-0.32036 3.09279,-5.45716 3.40761,-5.69209 0.32013,-0.23887 0.62407,-0.26529 2.63505,-0.22907 l 2.27317,0.041 -3.97646,2.89243 c -4.32785,3.14804 -4.34899,3.16259 -4.33937,2.98776 z m -53.86883,-0.91906 c 0.43275,-0.41569 8.83213,-6.51537 8.89091,-6.45663 0.0388,0.0387 -0.75672,1.48783 -1.76771,3.22018 -1.6059,2.75173 -1.89243,3.16154 -2.26753,3.24304 -0.69491,0.15109 -5.01366,0.14515 -4.85567,-0.007 z m -1.91153,-1.52688 c 0.13563,-0.26403 0.80776,-1.46058 1.49381,-2.65901 0.87879,-1.53507 1.34208,-2.20235 1.56781,-2.25818 0.17623,-0.0436 1.20657,-0.06 2.2896,-0.0366 l 1.9692,0.0426 -3.69771,2.69572 c -2.03373,1.48263 -3.73626,2.69571 -3.78342,2.69571 -0.0471,0 0.0251,-0.21604 0.16076,-0.48007 z m -34.23064,-1.35654 c 0,-0.0448 0.80117,-3.48856 1.78043,-7.65271 1.34507,-5.71992 1.85214,-7.64343 2.07372,-7.86662 0.28681,-0.28887 0.48961,-0.29541 9.15601,-0.29541 4.87447,0 8.84608,0.0457 8.8258,0.10153 -0.0307,0.0846 -21.0862,15.33446 -21.65123,15.68131 -0.10159,0.0625 -0.18473,0.0768 -0.18473,0.0319 z m 0.16408,-18.31038 c -0.472,-0.26147 -0.74363,-0.7842 -0.75,-1.44338 -0.005,-0.54703 3.76807,-13.25936 4.26508,-14.36893 0.33607,-0.75025 0.669,-1.04297 1.41963,-1.24812 0.39624,-0.10834 3.43117,-0.1619 9.20469,-0.16242 9.25425,-8.9e-4 9.31447,0.003 9.84096,0.75499 0.30429,0.4342 0.2938,1.16006 -0.0318,2.19838 l -0.25476,0.81241 -6.25126,0.0738 -6.25126,0.0738 -0.39417,0.44313 c -0.29779,0.33478 -0.90008,1.98702 -2.46322,6.75735 l -2.06906,6.31422 -2.95583,-0.005 c -2.16948,-0.003 -3.04976,-0.0569 -3.309,-0.20051 z m 24.26637,-0.0827 c -0.31341,-0.191 -0.53014,-0.48085 -0.6443,-0.86164 -0.16024,-0.53448 -0.037,-1.08849 1.79738,-8.0803 1.09339,-4.16751 2.08076,-7.64408 2.21979,-7.81578 0.2381,-0.29409 0.41089,-0.31173 3.51503,-0.35871 2.9914,-0.0452 3.26465,-0.0284 3.26465,0.20128 0,0.30323 -0.79863,3.49894 -1.60558,6.42489 -0.94356,3.42116 -1.49802,5.70647 -1.49802,6.17428 0,0.32577 0.0833,0.45685 0.33253,0.52361 0.436,0.11672 5.9291,0.11968 6.23258,0.003 0.22671,-0.0869 0.555,-1.05015 3.4045,-9.98865 0.74069,-2.32345 1.04957,-3.10151 1.28028,-3.22492 0.19795,-0.1059 1.1661,-0.1455 2.77343,-0.1134 3.00374,0.0598 3.26817,0.16225 3.26817,1.2651 0,1.02574 -4.55821,15.37814 -5.03546,15.85513 -0.27545,0.27528 -0.59637,0.28483 -9.55887,0.2843 -8.9314,-5.9e-4 -9.29129,-0.0105 -9.74611,-0.28836 z m 29.12568,0.0609 c 0.0482,-0.12544 0.83057,-2.79345 1.7387,-5.92885 1.20138,-4.14801 1.61149,-5.76353 1.50566,-5.93121 -0.24733,-0.39189 -0.90952,-0.49035 -3.85452,-0.57315 -2.37387,-0.0668 -2.84496,-0.11602 -2.84496,-0.29805 0,-0.47996 0.49216,-2.08548 0.90632,-2.95655 0.73757,-1.55125 -0.18612,-1.43377 11.64455,-1.48087 5.64307,-0.0225 10.31581,0.0139 10.38385,0.0829 0.0681,0.068 -0.14296,0.95049 -0.46898,1.96107 -0.45887,1.4225 -0.69337,1.92915 -1.03843,2.24364 -0.42974,0.39162 -0.50791,0.40692 -2.17994,0.42667 -4.51885,0.0534 -4.27128,0.0342 -4.7151,0.36466 -0.50515,0.37612 -0.43604,0.18662 -2.20309,6.04025 -0.78476,2.5997 -1.55611,4.981 -1.71406,5.2918 -0.45636,0.89792 -0.83742,0.98588 -4.27121,0.98588 -2.62277,0 -2.96596,-0.027 -2.88879,-0.22809 z m 18.3059,0.009 c -0.5716,-0.24897 -0.83149,-0.82261 -0.70265,-1.55086 0.19791,-1.11859 3.78124,-14.51268 3.99111,-14.91832 0.15117,-0.29226 0.40176,-0.48088 0.77714,-0.58507 0.68099,-0.18901 5.64506,-0.20248 5.9398,-0.0157 0.18091,0.11444 0.10613,0.63369 -0.49441,3.432 -0.39212,1.82729 -1.03791,4.28247 -1.44857,5.50729 -0.55875,1.66646 -0.74614,2.44761 -0.76181,3.17576 l -0.0208,0.96569 3.15874,0.04 c 2.22265,0.0281 3.21964,-0.0105 3.36421,-0.1305 0.18604,-0.1544 0.95062,-2.42812 3.37176,-10.02754 0.45293,-1.42171 0.8869,-2.68463 0.96433,-2.80649 0.11678,-0.18385 0.60497,-0.22157 2.86842,-0.22157 2.68338,0 2.73381,0.005 3.10887,0.3581 0.23351,0.21931 0.38125,0.51818 0.38125,0.77115 0,0.41597 -1.02092,3.76189 -3.59906,11.79538 l -1.39842,4.35744 -9.50924,0.0317 c -7.94014,0.0265 -9.58868,-0.003 -9.99068,-0.17799 z m 22.57766,-0.77692 c 0.56284,-2.01673 4.75767,-14.87828 5.02055,-15.3933 0.51325,-1.00547 0.0864,-0.96559 10.33356,-0.96559 9.02523,0 9.26413,0.007 9.76876,0.29953 0.28934,0.16748 0.64238,0.55391 0.80119,0.87682 0.39954,0.81227 0.23197,1.59963 -1.25574,5.90042 -1.36248,3.93879 -1.63658,4.40818 -2.73574,4.6848 -1.10738,0.27869 -1.10457,0.30641 0.29678,2.93085 0.6973,1.30589 1.26782,2.44264 1.26782,2.52614 0,0.10101 -1.23918,0.13713 -3.7078,0.10764 l -3.70779,-0.0441 -0.3195,-0.39088 c -0.17573,-0.21498 -0.81382,-1.33671 -1.41797,-2.49272 -1.13371,-2.16923 -1.56332,-2.65371 -2.35445,-2.65496 -0.33251,-5.9e-4 -0.34439,-0.0344 -0.24694,-0.70217 0.12708,-0.87056 0.74188,-2.2791 1.16539,-2.66981 0.48598,-0.44832 1.34093,-0.61502 3.15916,-0.61591 1.56082,-7.5e-4 1.67144,-0.0206 1.86474,-0.33319 0.35531,-0.57458 1.03866,-2.7086 0.94526,-2.95187 -0.11992,-0.3122 -2.09204,-0.47437 -4.50328,-0.37029 -1.97218,0.0851 -2.37645,0.22605 -2.75468,0.96019 -0.11468,0.22265 -0.98512,2.86419 -1.93425,5.8701 -0.94915,3.00588 -1.8245,5.61778 -1.94522,5.8042 -0.12079,0.18642 -0.38664,0.40244 -0.59089,0.48006 -0.20424,0.0776 -1.95893,0.14114 -3.89931,0.14114 h -3.52793 z m 26.25846,0.78467 c -1.04716,-0.3763 -1.57897,-1.1144 -1.57897,-2.19149 0,-0.76497 0.20512,-1.47122 2.46574,-8.48967 1.91018,-5.93049 2.03304,-6.17979 3.15128,-6.39537 0.36525,-0.0705 5.20518,-0.13085 10.75542,-0.13451 8.59581,-0.005 10.10331,0.0248 10.17207,0.20377 0.20274,0.52809 -0.77828,3.1589 -1.35718,3.63952 -0.21102,0.1752 -1.42887,0.2252 -6.9709,0.28615 l -6.71523,0.0738 -0.2773,0.34249 c -0.27768,0.34293 -0.84376,2.03269 -1.83992,5.49205 -0.66239,2.30023 -0.78292,3.08396 -0.50167,3.26192 0.11381,0.0721 3.31595,0.1319 7.11603,0.13312 3.80006,0.001 6.90919,0.0548 6.90919,0.11898 0,0.44419 -0.96163,3.0558 -1.2475,3.38802 l -0.35249,0.40964 -9.58229,0.0321 c -7.80996,0.0262 -9.68659,-0.005 -10.14628,-0.17063 z m -108.98574,-6.98456 c -0.26418,-0.0328 -0.48033,-0.0939 -0.48033,-0.13591 0,-0.12509 0.84005,-2.45576 1.04781,-2.90718 0.37461,-0.81387 0.54973,-0.83824 6.02167,-0.83824 h 5.01509 l -0.34946,1.47789 c -0.41497,1.75498 -0.64958,2.15954 -1.36801,2.35898 -0.50969,0.14149 -8.80371,0.17877 -9.88677,0.0445 z m 118.8231,-0.2255 c 0.0375,-0.10153 0.21104,-0.6167 0.38574,-1.14475 0.4665,-1.40998 0.7952,-1.87509 1.45445,-2.05806 0.34145,-0.0947 2.46078,-0.15632 5.40205,-0.15684 4.13691,-7.3e-4 4.84013,0.0303 4.84013,0.21403 0,0.44208 -0.72439,2.18808 -1.05781,2.54969 -0.69269,0.7512 -0.92516,0.7805 -6.195,0.7805 -3.8559,0 -4.88316,-0.0393 -4.82956,-0.18463 z M 132.71727,162.3238 c -8.20978,-0.0419 -14.69409,-0.0925 -14.40958,-0.11253 22.64868,-1.60143 51.84884,-2.37863 82.68881,-2.20085 19.44827,0.11217 32.74921,0.41092 47.14517,1.05913 4.25418,0.19156 19.44846,1.04339 20.469,1.14756 2.08926,0.21327 -99.31671,0.29289 -135.8934,0.10677 z"
         id="path1114"
         inkscape:connector-curvature="0"
         sodipodi:nodetypes="cccscccccccccccsccscccscccsccsccccccccccsccccssscccccccsccccccccccccccccccccsscccccscsccsccccccccscscccccccccscccccccccssccsccsccsccccccccccccccccccccccscsccsccsccccccccscccccccccscccccscccccccccscsccsccccscccccscccccccccccccccscccscccccccccccsccscccscsccccccccsscscccccscc" />
      <path
         style="fill:#0c4565;stroke-width:0.15897752"
         d="m 123.68897,186.5575 c 1.24306,0.95481 17.26984,11.60292 17.46427,11.60315 0.0554,8.2e-4 -0.12802,-0.3396 -0.40799,-0.75483 -0.67326,-0.99878 -0.80406,-1.9873 -0.32156,-2.42988 0.34578,-0.31715 0.45384,-0.32215 6.79435,-0.31353 6.26717,0.008 6.4549,-6.1e-4 6.88017,-0.30705 0.61132,-0.44102 0.57735,-0.93125 -0.3071,-4.43219 -0.6278,-2.48495 -0.81227,-3.00665 -1.1654,-3.29582 l -0.41957,-0.34358 -14.45487,-0.0138 c -14.41528,-0.0138 -14.45377,-0.0138 -14.06228,0.28776 z"
         id="path1114-4"
         inkscape:connector-curvature="0"
         sodipodi:nodetypes="csccsccccccc" />
      <path
         style="fill:#0c4565;stroke-width:0.319112"
         d="m 227.10468,222.13496 c 0.105,-0.26839 1.81079,-5.97694 3.79066,-12.68556 2.61921,-8.87523 3.51334,-12.33186 3.2826,-12.69062 -0.53921,-0.8385 -1.98291,-1.0492 -8.40352,-1.22635 -5.17543,-0.14297 -6.20249,-0.24823 -6.20249,-0.6377 0,-1.02695 1.07299,-4.46219 1.97595,-6.32595 1.60803,-3.3191 -0.4058,-3.06774 25.38708,-3.16852 12.30286,-0.0481 22.49021,0.0298 22.63855,0.1773 0.14842,0.14559 -0.31168,2.03372 -1.02245,4.196 -1.00041,3.04362 -1.51167,4.12766 -2.26396,4.80056 -0.9369,0.83793 -1.10732,0.87066 -4.75263,0.91293 -9.85187,0.1142 -9.31211,0.0732 -10.27972,0.78023 -1.10131,0.80475 -0.95064,0.3993 -4.8031,12.92391 -1.71093,5.56242 -3.39259,10.65754 -3.73696,11.32254 -0.99493,1.9212 -1.8257,2.10941 -9.31196,2.10941 -5.71808,0 -6.46629,-0.0578 -6.29805,-0.48803 z"
         id="path1114-1"
         inkscape:connector-curvature="0"
         sodipodi:nodetypes="ccccscccccccccscc" />
      <g
         id="g1253"
         transform="translate(-36.348661,14.967094)">
        <path
           style="fill:#ffffff;fill-opacity:1;stroke:none;stroke-width:0.02046761"
           d="m 279.2883,194.30827 c -0.19866,-0.0444 -0.22593,-0.0545 -0.83143,-0.30596 -0.89485,-0.37163 -1.26871,-0.44899 -1.86379,-0.38566 -0.36584,0.039 -0.6734,0.12621 -1.39533,0.39604 -0.60684,0.22679 -0.90047,0.29622 -1.26387,0.29882 -0.40777,0.003 -0.71168,-0.13905 -0.94557,-0.44172 -0.28215,-0.36512 -0.33487,-0.70079 -0.19984,-1.27264 0.2224,-0.94187 0.67716,-1.87319 1.30929,-2.68132 0.52028,-0.66513 1.30804,-1.13816 2.11696,-1.27115 0.28835,-0.0474 0.79962,-0.0327 1.05388,0.0302 0.76561,0.1895 1.53444,0.82035 2.31076,1.89601 0.46089,0.63863 0.8546,1.32299 1.0441,1.81493 0.2239,0.58121 0.2372,1.10519 0.0367,1.44281 -0.11806,0.19873 -0.38079,0.38743 -0.65053,0.46721 -0.18049,0.0534 -0.51279,0.0591 -0.72126,0.0125 z m -7.12976,-4.10916 c -1.21257,-0.33136 -2.01424,-1.80022 -1.69682,-3.10899 0.1022,-0.42137 0.40606,-0.73777 0.81049,-0.84394 0.1502,-0.0394 0.43772,-0.0384 0.57826,0.002 0.28246,0.0813 0.65563,0.32811 0.92418,0.61126 0.50913,0.53681 0.78601,1.25919 0.75852,1.97895 -0.0165,0.43403 -0.107,0.72694 -0.30387,0.98416 -0.1069,0.13968 -0.32069,0.30208 -0.47353,0.35971 -0.16692,0.0629 -0.40408,0.0696 -0.59723,0.0169 z m 8.25286,-0.18985 c -0.33552,-0.10517 -0.60672,-0.37503 -0.76797,-0.76428 -0.13629,-0.32903 -0.16451,-0.71996 -0.0853,-1.1816 0.10728,-0.62498 0.3964,-1.18716 0.81391,-1.58257 0.32035,-0.30339 0.66717,-0.47309 1.06179,-0.5195 0.25387,-0.0299 0.54294,0.0822 0.76183,0.29533 0.23714,0.23091 0.37725,0.51675 0.44458,0.90704 0.0303,0.17526 0.0316,0.23977 0.0107,0.50581 -0.0347,0.44012 -0.11288,0.73482 -0.29137,1.09777 -0.14717,0.29928 -0.28907,0.50032 -0.5017,0.71082 -0.29019,0.28729 -0.54086,0.43669 -0.86944,0.5182 -0.18801,0.0466 -0.45071,0.0525 -0.577,0.013 z m -5.83674,-3.16421 c -0.12596,-0.0245 -0.41329,-0.16233 -0.57609,-0.27631 -0.49008,-0.34312 -0.85898,-0.93642 -1.01567,-1.63348 -0.10877,-0.48388 -0.1051,-1.04509 0.01,-1.47384 0.0727,-0.2717 0.28775,-0.61652 0.50423,-0.80852 0.21483,-0.19055 0.43717,-0.27906 0.70092,-0.27906 0.4901,0 1.00887,0.33494 1.37469,0.88756 0.55598,0.8399 0.66308,2.1298 0.24024,2.8936 -0.28319,0.51156 -0.76766,0.78161 -1.23797,0.69005 z m 3.56993,-3e-4 c -0.56847,-0.0832 -1.03688,-0.61115 -1.20707,-1.3606 -0.16865,-0.7427 0.0486,-1.77711 0.50605,-2.40951 0.26348,-0.36424 0.65112,-0.63994 1.03074,-0.73306 0.0567,-0.0139 0.0845,-0.0271 0.0618,-0.0293 -0.0231,-0.002 -0.01,-0.01 0.0309,-0.0178 0.0396,-0.008 0.12777,-0.008 0.19577,-7.7e-4 0.068,0.008 0.1051,0.0152 0.0824,0.0177 -0.0226,0.002 0.0131,0.0176 0.0794,0.0335 0.37855,0.0904 0.74552,0.42313 0.9412,0.85336 0.0949,0.20864 0.13924,0.38938 0.17636,0.71869 0.10657,0.94568 -0.18919,1.87081 -0.78237,2.44714 -0.23417,0.22752 -0.61056,0.44475 -0.81762,0.47188 -0.17604,0.0231 -0.19534,0.0236 -0.29765,0.009 z"
           id="path1255"
           inkscape:connector-curvature="0" />
      </g>
    </g>
  </g>
</svg>
