<svg id="Layer_1" data-name="Layer 1" xmlns="http://www.w3.org/2000/svg" viewBox="0 0 500 100"><defs><style>.cls-1{fill:#fff;}</style></defs><title>lhd-2018-logo-lockup-horizontal-white</title><polygon class="cls-1" points="258.01 7.77 277.37 7.77 269.86 24.75 280.25 24.75 259.37 53.71 259.87 32 247.92 32 258.01 7.77"/><path class="cls-1" d="M240.3,10.35a.94.94,0,0,1,.95.95v33a.94.94,0,0,1-.95.95h-6.93a.94.94,0,0,1-.95-.95V32.8a.86.86,0,0,0-.9-.9h-9.87a1,1,0,0,0-.67.25.84.84,0,0,0-.27.65V44.32a.84.84,0,0,1-.95.95h-6.88a.84.84,0,0,1-.95-.95v-33a.84.84,0,0,1,.95-.95h6.88a.84.84,0,0,1,.95.95V22.47a.84.84,0,0,0,.95.95h9.87a.83.83,0,0,0,.65-.28,1,1,0,0,0,.25-.67V11.3a.94.94,0,0,1,.95-.95Z"/><path class="cls-1" d="M297,19.08a.84.84,0,0,0-.27.65V35.89a.84.84,0,0,0,.27.65,1,1,0,0,0,.67.25h16a.93.93,0,0,1,.95.95v6.58a.94.94,0,0,1-.95.95h-19.9a5.83,5.83,0,0,1-2.27-.45,5.81,5.81,0,0,1-3.57-5.39V16.19a5.81,5.81,0,0,1,.45-2.27,5.45,5.45,0,0,1,1.25-1.84,6.32,6.32,0,0,1,1.87-1.25,5.51,5.51,0,0,1,2.27-.48h19.9a.94.94,0,0,1,.95.95v6.59a.93.93,0,0,1-.95.94h-16A1,1,0,0,0,297,19.08Z"/><path class="cls-1" d="M345.39,25.07a.27.27,0,0,0,0,.35L357,44.47a.53.53,0,0,1,0,.57.61.61,0,0,1-.55.22h-8.28a1.63,1.63,0,0,1-.8-.22,1.53,1.53,0,0,1-.6-.57L339.3,30.85c-.1-.17-.18-.18-.25,0l-4.14,4.54a2,2,0,0,0-.42.72,2.55,2.55,0,0,0-.17.87v7.38a.84.84,0,0,1-.95.95h-6.88a.84.84,0,0,1-.95-.95v-33a.84.84,0,0,1,.95-.95h6.88a.84.84,0,0,1,.95.95V26.11L347.18,11a1.89,1.89,0,0,1,.7-.5,2.13,2.13,0,0,1,.85-.2H357c.27,0,.42.07.47.2s0,.3-.18.5Z"/><path class="cls-1" d="M32.86,36.91a.86.86,0,0,1,.66.28,1,1,0,0,1,.25.68v6.69a1,1,0,0,1-.25.68.86.86,0,0,1-.66.28H11a.85.85,0,0,1-1-1V11a.85.85,0,0,1,1-1h7a.85.85,0,0,1,1,1V36a.86.86,0,0,0,.28.66,1,1,0,0,0,.68.25Z"/><path class="cls-1" d="M66.56,10a5.67,5.67,0,0,1,2.31.48A6,6,0,0,1,72,13.68a5.64,5.64,0,0,1,.48,2.3V39.6A5.66,5.66,0,0,1,72,41.91a6.47,6.47,0,0,1-1.27,1.9,5.6,5.6,0,0,1-1.87,1.27,6,6,0,0,1-2.31.46H48.62a6,6,0,0,1-2.31-.46,5.83,5.83,0,0,1-3.17-3.17,5.91,5.91,0,0,1-.46-2.31V16a5.89,5.89,0,0,1,.46-2.3,5.56,5.56,0,0,1,1.27-1.88,6.48,6.48,0,0,1,1.9-1.27A5.66,5.66,0,0,1,48.62,10Zm-3,8.62H51.61V36.91H63.52Z"/><path class="cls-1" d="M93.55,18.92a.85.85,0,0,0-.28.66V36a.86.86,0,0,0,.28.66,1,1,0,0,0,.68.25h16.27a1,1,0,0,1,1,1v6.69a1,1,0,0,1-1,1H90.28a5.94,5.94,0,0,1-2.3-.46,5.9,5.9,0,0,1-3.63-5.47V16a5.89,5.89,0,0,1,.46-2.3,5.59,5.59,0,0,1,1.27-1.88A6.52,6.52,0,0,1,88,10.53a5.65,5.65,0,0,1,2.3-.48h20.22a1,1,0,0,1,1,1V17.7a1,1,0,0,1-1,1H94.24A1,1,0,0,0,93.55,18.92Z"/><path class="cls-1" d="M147.4,10a5.65,5.65,0,0,1,2.3.48,5.93,5.93,0,0,1,3.14,3.15,5.6,5.6,0,0,1,.48,2.3V44.57a1,1,0,0,1-1,1h-7a1,1,0,0,1-1-1V35.49a1,1,0,0,0-.25-.68.86.86,0,0,0-.66-.28h-10a1,1,0,0,0-1,1v9.07a.85.85,0,0,1-1,1h-7a.85.85,0,0,1-1-1V16a5.89,5.89,0,0,1,.46-2.3,5.59,5.59,0,0,1,1.27-1.88,6.52,6.52,0,0,1,1.9-1.27,5.65,5.65,0,0,1,2.3-.48Zm-3,16.88V18H132.45v8.92Z"/><path class="cls-1" d="M188.25,36.91a.86.86,0,0,1,.66.28,1,1,0,0,1,.25.68v6.69a1,1,0,0,1-.25.68.86.86,0,0,1-.66.28H166.36a.85.85,0,0,1-1-1V11a.85.85,0,0,1,1-1h7a.85.85,0,0,1,1,1V36a.86.86,0,0,0,.28.66,1,1,0,0,0,.68.25Z"/><path class="cls-1" d="M403,10a5.67,5.67,0,0,1,2.31.48,6,6,0,0,1,3.14,3.15A5.64,5.64,0,0,1,409,16V39.6a5.66,5.66,0,0,1-.48,2.31,6.47,6.47,0,0,1-1.27,1.9,5.6,5.6,0,0,1-1.87,1.27,6,6,0,0,1-2.31.46H380.12a.85.85,0,0,1-1-1V11a.85.85,0,0,1,1-1Zm-15,26.87H400V18.67H388.07Z"/><path class="cls-1" d="M444.79,10a5.65,5.65,0,0,1,2.3.48,5.93,5.93,0,0,1,3.14,3.15,5.6,5.6,0,0,1,.48,2.3V44.57a1,1,0,0,1-1,1h-7a1,1,0,0,1-1-1V35.49a1,1,0,0,0-.25-.68.86.86,0,0,0-.66-.28h-10a1,1,0,0,0-1,1v9.07a.85.85,0,0,1-1,1h-7a.85.85,0,0,1-1-1V16a5.89,5.89,0,0,1,.46-2.3,5.59,5.59,0,0,1,1.27-1.88,6.52,6.52,0,0,1,1.9-1.27,5.65,5.65,0,0,1,2.3-.48Zm-3,16.88V18H429.84v8.92Z"/><path class="cls-1" d="M489.72,10.33A.93.93,0,0,1,490,11v18.1a5.6,5.6,0,0,1-.48,2.3,5.94,5.94,0,0,1-3.14,3.15,5.67,5.67,0,0,1-2.31.48h-3.85v9.53a1,1,0,0,1-1,1h-7a.85.85,0,0,1-.66-.28,1,1,0,0,1-.25-.68V35h-3.85a5.65,5.65,0,0,1-2.3-.48,6.44,6.44,0,0,1-1.9-1.27A5.59,5.59,0,0,1,462,31.41a5.89,5.89,0,0,1-.46-2.3V11a.85.85,0,0,1,1-1h6.69a1,1,0,0,1,1,1v15.1a1,1,0,0,0,.25.68.85.85,0,0,0,.66.28h9.37a.85.85,0,0,0,1-1V11a.85.85,0,0,1,1-1H489A.93.93,0,0,1,489.72,10.33Z"/><path class="cls-1" d="M270.68,75.6h-9a.42.42,0,0,0-.42.42v4.42a.42.42,0,0,0,.42.42h3.53v5.49a10.68,10.68,0,0,1-3,.27c-2.58,0-6.19-.94-6.19-8.87s3.76-9,7.28-9a14.29,14.29,0,0,1,5.2.8.43.43,0,0,0,.51-.41l1-4.27a.39.39,0,0,0-.16-.33c-.34-.24-2.41-1.4-7.65-1.4-6,0-12.22,2.57-12.22,14.9S257.05,92.23,263,92.23A14.7,14.7,0,0,0,271,90.12a.36.36,0,0,0,.14-.32V76A.42.42,0,0,0,270.68,75.6Z"/><path class="cls-1" d="M317.25,64.63a.42.42,0,0,0-.42-.42h-5.09a.42.42,0,0,0-.42.42v9.83h-7.93V64.63a.42.42,0,0,0-.42-.42h-5.09a.42.42,0,0,0-.42.42V91.26a.42.42,0,0,0,.42.43H303a.42.42,0,0,0,.42-.43V79.87h7.93V91.26a.42.42,0,0,0,.42.43h5.1a.42.42,0,0,0,.42-.43Z"/><ellipse class="cls-1" cx="277" cy="68.13" rx="3.28" ry="3.31"/><path class="cls-1" d="M279.91,85.64V73.35a.42.42,0,0,0-.42-.42h-5.07a.49.49,0,0,0-.44.47V91c0,.52.32.67.74.67h4.57c.5,0,.62-.25.62-.68Z"/><path class="cls-1" d="M336.58,73h-5a.42.42,0,0,0-.42.43V86.45a5.7,5.7,0,0,1-3.1.94c-1.82,0-2.3-.83-2.3-2.61V73.39a.42.42,0,0,0-.42-.43h-5.12a.42.42,0,0,0-.42.43V85.64c0,5.29,3,6.59,7,6.59a11.83,11.83,0,0,0,6-1.84,10.69,10.69,0,0,0,.19,1.08.44.44,0,0,0,.37.23h3.26a.42.42,0,0,0,.42-.43V73.39A.42.42,0,0,0,336.58,73Z"/><path class="cls-1" d="M350.38,72.37a9.49,9.49,0,0,0-4.82,1.28v-9a.42.42,0,0,0-.42-.42H340a.42.42,0,0,0-.42.42V91.26a.42.42,0,0,0,.42.43h3.54a.42.42,0,0,0,.37-.23,8.3,8.3,0,0,0,.21-1.23,9.13,9.13,0,0,0,6,2c4.64,0,7.3-2.35,7.3-10.56S353.25,72.37,350.38,72.37Zm-2,15a6.05,6.05,0,0,1-2.94-.85V78.09a6.73,6.73,0,0,1,2.61-.85c1.82-.16,3.57.39,3.57,4.72C351.63,86.54,350.84,87.44,348.39,87.37Z"/><path class="cls-1" d="M294.54,72.92h-3.82v-5c0-.19-.1-.29-.32-.29h-5.2c-.2,0-.31.09-.31.28v5.21l-2.78.68a.42.42,0,0,0-.3.41v3.27a.42.42,0,0,0,.42.43h2.67v7.88c0,5.85,4.1,6.43,6.87,6.43a11.61,11.61,0,0,0,3-.5.39.39,0,0,0,.24-.38v-3.6a.43.43,0,0,0-.42-.43c-.22,0-.79.09-1.38.09-1.87,0-2.51-.87-2.51-2s0-7.49,0-7.49h3.82a.42.42,0,0,0,.42-.43v-4.1A.42.42,0,0,0,294.54,72.92Z"/><path class="cls-1" d="M117.14,71.66V86.85h-3.72V81h-5.14v5.87h-3.72V71.66h3.72v5.59h5.14V71.66Z"/><path class="cls-1" d="M134.38,85a7.76,7.76,0,0,1-10.8,0,9.12,9.12,0,0,1,0-11.41,7.78,7.78,0,0,1,10.82,0,9.1,9.1,0,0,1,0,11.41Zm-8.12-2.68A3.39,3.39,0,0,0,129,83.43a3.34,3.34,0,0,0,2.71-1.15,5.12,5.12,0,0,0,0-6A3.34,3.34,0,0,0,129,75.08a3.39,3.39,0,0,0-2.72,1.15,5.18,5.18,0,0,0,0,6Z"/><path class="cls-1" d="M149.68,72.16V76a12.45,12.45,0,0,0-4.1-.95c-1,0-1.52.37-1.52,1,0,.44.32.78.94,1l1.16.48a18.86,18.86,0,0,1,1.76.82,6,6,0,0,1,1.24.91,3.67,3.67,0,0,1,1.11,3,4.45,4.45,0,0,1-1.47,3.54,5.93,5.93,0,0,1-4,1.26,13,13,0,0,1-4.48-.91V82.37q1.44.51,2.47.8a8.16,8.16,0,0,0,2,.27c1.06,0,1.77-.37,1.77-1,0-.51-.29-.77-1-1.06l-1-.43c-.57-.24-1-.44-1.41-.63a11.48,11.48,0,0,1-1.14-.7,3.91,3.91,0,0,1-1.63-3.4,4.52,4.52,0,0,1,1.38-3.54,5.5,5.5,0,0,1,3.86-1.26A11.35,11.35,0,0,1,149.68,72.16Z"/><path class="cls-1" d="M166.07,75.38h-4.3V86.85H158V75.38h-4.3V71.66h12.32Z"/><path class="cls-1" d="M174,75.38v1.95h6v3.72h-6v2.07h6.25v3.72h-10V71.66h10v3.72Z"/><path class="cls-1" d="M185.13,71.66h5.49a7.6,7.6,0,1,1,0,15.18h-5.49Zm3.72,11.46h1.72a3.94,3.94,0,0,0,2.86-1,4.22,4.22,0,0,0,0-5.64,4,4,0,0,0-2.87-1.05h-1.72Z"/><path class="cls-1" d="M220.85,82a4.76,4.76,0,0,1-1.32,3.49,4.68,4.68,0,0,1-3.47,1.32h-6.83V71.66h6.71a4.27,4.27,0,0,1,3.19,1.21,4.35,4.35,0,0,1,1.21,3.21,4.46,4.46,0,0,1-.89,2.81A3.92,3.92,0,0,1,220.85,82ZM213,75.38v1.9h2.71a.89.89,0,0,0,1-1,.85.85,0,0,0-1-.91Zm0,7.74H216c.75,0,1.11-.35,1.11-1.06S216.76,81,216,81H213Z"/><path class="cls-1" d="M232.25,81.94v4.91h-3.72v-5l-5.16-10.22h4.15l2.89,5.71,2.88-5.71h4.15Z"/></svg>